<svg width="60" height="46" viewBox="0 0 60 46" fill="none" xmlns="http://www.w3.org/2000/svg">
<g clip-path="url(#clip0_816_10104)">
<path fill-rule="evenodd" clip-rule="evenodd" d="M26.3507 18.0378V18.6671V32.2959C31.1497 29.3479 34.3568 24.06 34.3568 18.0378C34.3568 13.9095 32.847 10.1284 30.3537 7.20703C27.8602 10.1284 26.3507 13.9095 26.3507 18.0378Z" fill="#470A68"/>
<path fill-rule="evenodd" clip-rule="evenodd" d="M0.803284 1.30371V34.7718H17.5799C20.793 34.7718 23.7968 33.8647 26.3506 32.2959V18.6671V18.0377C26.3506 22.8617 22.4162 26.7863 17.5799 26.7863H8.80914V9.28937H17.5799C22.4162 9.28937 26.3506 13.2138 26.3506 18.0377C26.3506 13.9095 27.8604 10.1283 30.3537 7.20698C27.2741 3.59894 22.6917 1.30371 17.5799 1.30371H0.803284Z" fill="#004B87"/>
<path fill-rule="evenodd" clip-rule="evenodd" d="M42.9822 1.30431C37.9288 1.34724 33.4042 3.63283 30.3536 7.20689C32.8472 10.1282 34.3567 13.9094 34.3567 18.0377C34.3567 13.1258 38.4359 9.14648 43.3928 9.29319C48.1633 9.43439 51.8982 13.4635 51.8982 18.2239V34.7717H59.9042V18.309C59.9042 9.02548 52.2892 1.2251 42.9822 1.30431Z" fill="#A6192E"/>
<path fill-rule="evenodd" clip-rule="evenodd" d="M26.3507 32.2962V34.7721H34.3568V18.0381C34.3568 24.0605 31.1497 29.3482 26.3507 32.2962Z" fill="#AA182C"/>
<path fill-rule="evenodd" clip-rule="evenodd" d="M38.4377 39.3609C38.1709 39.3609 37.9536 39.5774 37.9536 39.8437C37.9536 40.1096 38.1709 40.3261 38.4377 40.3261C38.7043 40.3261 38.9216 40.1096 38.9216 39.8437C38.9216 39.5774 38.7043 39.3609 38.4377 39.3609ZM7.19942 39.3609C6.93265 39.3609 6.71582 39.5774 6.71582 39.8437C6.71582 40.1096 6.93265 40.3261 7.19942 40.3261C7.4662 40.3261 7.68326 40.1096 7.68326 39.8437C7.68326 39.5774 7.4662 39.3609 7.19942 39.3609ZM23.2199 45.3849H24.0023V39.0427H23.2199V45.3849ZM47.4366 43.1253C47.4366 43.9144 46.8501 44.7664 45.9024 44.7664C45.0381 44.7664 44.4106 44.076 44.4106 43.1253V43.108C44.4106 42.147 45.0241 41.4756 45.9024 41.4756C46.6565 41.4756 47.4366 42.0861 47.4366 43.108V43.1253ZM47.4108 41.573C46.9838 41.0353 46.4369 40.763 45.7827 40.763C44.7301 40.763 43.6112 41.5879 43.6112 43.1165V43.1338C43.6112 44.6566 44.7301 45.4786 45.7827 45.4786C46.4374 45.4786 46.9716 45.2008 47.4108 44.63V45.3849H48.1934V39.0427H47.4108V41.573ZM36.1474 43.9582L32.4747 39.2982H31.7499V45.3849H32.5327V40.6138L36.2805 45.3613L36.2991 45.3849H36.93V39.2982H36.1474V43.9582ZM28.3444 43.1253C28.3444 43.9144 27.7579 44.7664 26.81 44.7664C25.9457 44.7664 25.3184 44.076 25.3184 43.1253V43.108C25.3184 42.147 25.9319 41.4756 26.81 41.4756C27.5643 41.4756 28.3444 42.0861 28.3444 43.108V43.1253ZM28.3188 41.573C27.8916 41.0353 27.3447 40.763 26.6905 40.763C25.6379 40.763 24.5188 41.5879 24.5188 43.1165V43.1338C24.5188 44.6566 25.6379 45.4786 26.6905 45.4786C27.3452 45.4786 27.8794 45.2008 28.3188 44.63V45.3849H29.1012V39.0427H28.3188V41.573ZM38.0082 45.3849H38.7906V40.8567H38.0082V45.3849ZM22.0243 43.1423C22.0243 44.0728 21.3538 44.7747 20.4644 44.7747C19.5849 44.7747 18.8962 44.0503 18.8962 43.1253V43.108C18.8962 42.1725 19.563 41.4671 20.4474 41.4671C21.3317 41.4671 22.0243 42.1954 22.0243 43.1253V43.1423ZM20.4644 40.763C19.1365 40.763 18.0966 41.8005 18.0966 43.1253V43.1423C18.0966 44.4569 19.1291 45.4873 20.4474 45.4873C21.7801 45.4873 22.824 44.4495 22.824 43.1253V43.108C22.824 41.7932 21.7877 40.763 20.4644 40.763ZM43.7622 40.8569H42.8691L41.5937 42.5198L40.3178 40.8569H39.4088L41.1218 43.0823L39.34 45.3849H40.2327L41.5764 43.6285L42.9117 45.3849H43.8297L42.0398 43.0658L43.7622 40.8569ZM59.1626 39.7023C59.3679 39.7023 59.5334 39.7388 59.7859 39.8106L59.8655 39.8334V39.1361L59.8241 39.1212C59.5978 39.0401 59.3815 39.0068 59.0772 39.0068C58.6635 39.0068 58.3206 39.131 58.0851 39.3657C57.8218 39.6286 57.6825 40.0354 57.6825 40.5426V40.8638H57.0765V41.559H57.6825V45.3833H58.4654V41.559H59.857V40.872H58.4568V40.5768C58.4568 39.9801 58.681 39.7023 59.1626 39.7023ZM6.80282 45.3849H7.58543V41.0279H6.80282V45.3849ZM5.3573 42.3587C5.3573 43.7008 4.36477 44.6383 2.94341 44.6383H1.60561V40.0448H2.94341C4.36477 40.0448 5.3573 40.9894 5.3573 42.3414V42.3587ZM2.94341 39.2982H0.805969V45.3849H2.94341C4.82029 45.3849 6.18272 44.1049 6.18272 42.3414V42.3244C6.18272 40.571 4.82029 39.2982 2.94341 39.2982ZM52.5847 43.1423C52.5847 44.0728 51.9142 44.7747 51.0251 44.7747C50.1453 44.7747 49.4566 44.0503 49.4566 43.1253V43.108C49.4566 42.1725 50.1237 41.4671 51.0078 41.4671C51.8921 41.4671 52.5847 42.1954 52.5847 43.1253V43.1423ZM51.0251 40.763C49.6972 40.763 48.6567 41.8005 48.6567 43.1253V43.1423C48.6567 44.4569 49.6896 45.4873 51.0078 45.4873C52.3403 45.4873 53.3844 44.4495 53.3844 43.1253V43.108C53.3844 41.7932 52.3481 40.763 51.0251 40.763ZM16.8803 43.1338C16.8803 44.0948 16.2671 44.7664 15.3887 44.7664C14.6347 44.7664 13.8546 44.1525 13.8546 43.1253V43.108C13.8546 42.3228 14.4411 41.4756 15.3887 41.4756C16.2531 41.4756 16.8803 42.1658 16.8803 43.1165V43.1338ZM15.5084 40.763C14.8538 40.763 14.3193 41.041 13.8801 41.6118V39.0427H13.0975V45.3849H13.8801V44.6686C14.3074 45.2063 14.854 45.4786 15.5084 45.4786C16.561 45.4786 17.6799 44.6539 17.6799 43.1253V43.108C17.6799 41.5852 16.561 40.763 15.5084 40.763ZM54.6596 41.8049V40.8553H53.877V45.3833H54.6596V43.5663C54.6596 42.3782 55.3223 41.6102 56.3475 41.6102H56.4614V40.7811L56.4013 40.7786C55.6807 40.751 55.0454 41.1287 54.6596 41.8049ZM9.04776 42.7988C9.16308 41.9961 9.71574 41.4414 10.4113 41.4414C11.2741 41.4414 11.6658 42.1302 11.7505 42.7988H9.04776ZM10.4284 40.763C9.18564 40.763 8.24835 41.7785 8.24835 43.1253C8.24835 44.4718 9.22224 45.4873 10.514 45.4873C11.2773 45.4873 11.8527 45.226 12.3794 44.6403L12.4213 44.5937L11.9195 44.1458L11.8776 44.1892C11.484 44.6004 11.0561 44.7919 10.531 44.7919C9.74612 44.7919 9.15733 44.256 9.04707 43.4515H12.5352L12.54 43.3943C12.549 43.2896 12.549 43.2205 12.549 43.1592C12.549 41.7261 11.6969 40.763 10.4284 40.763Z" fill="#004B87"/>
</g>
<defs>
<clipPath id="clip0_816_10104">
<rect width="60" height="45" fill="white" transform="translate(0 0.5)"/>
</clipPath>
</defs>
</svg>
